<svg width="36" height="36" viewBox="0 0 36 36" fill="none" xmlns="http://www.w3.org/2000/svg">
<g clip-path="url(#clip0_647_4178)">
<path d="M18.0005 36C8.02529 36 -0.0747145 28.0498 0.000519886 18C0.0757543 7.95023 7.65052 0 18.0005 0C28.3512 0 36.0005 8.1 36.0005 18C36.0005 27.9 27.9758 36 18.0005 36ZM23.3253 33.2248L18.2255 19.4998L13.4253 33.525C16.9508 34.3505 19.3505 34.5748 23.3253 33.2248ZM10.8758 32.4752L3.22575 11.5502C2.17529 13.8002 1.95099 15.6755 1.80052 18C1.87575 24.1495 5.32529 29.7745 10.8758 32.4752V32.4752ZM34.126 18C34.2005 14.0252 32.4012 10.8752 32.2507 10.4252C32.4012 13.5007 31.9505 15.075 31.426 16.8005L26.1758 31.8755C32.776 27.9 34.05 21.9748 34.2005 18H34.126ZM17.476 17.325L14.9258 10.35L13.0505 10.2002C12.301 9.675 12.7503 8.85023 13.2755 8.85023C16.6505 9.07523 18.5251 9.07523 21.9008 8.85023C22.7262 8.85023 22.9505 10.0505 21.9753 10.2002L20.1753 10.35L26.0246 27.5998L28.7991 18.1498C28.9496 14.0252 27.8239 13.5752 26.3241 10.575C25.1239 8.24977 26.3993 5.99977 28.7246 5.92523C26.8486 4.12523 23.0243 1.87523 17.9991 1.8C12.9739 1.72477 7.64911 4.275 4.49911 9.07523L10.0496 8.92547C10.7246 9.2257 10.4243 10.2002 10.0496 10.2755L8.09982 10.4252L13.9498 27.9752L17.476 17.325V17.325Z" fill="#21759B"/>
</g>
<defs>
<clipPath id="clip0_647_4178">
<rect width="36" height="36" fill="white"/>
</clipPath>
</defs>
</svg>
